#!OML:ASF E:\motion texture\Top Level 1\Subject 1\Session 1\male.ASF
:FULLY-SPECIFIED
:DEGREES
529
root -6.78023 18.032 4.58232 878.048 -94.5636 -877.477
lowerback 3.64215 -2.99629 -3.90688
upperback -1.46439 -4.16101 1.17313
thorax -3.18702 -1.97994 3.64954
lowerneck -20.4049 -3.17673 -5.80987
upperneck 14.3168 -4.12603 7.60647
head 8.06563 -1.52505 2.97091
rclavicle -1.35639e-014 -9.14409e-015
rhumerus -62.7611 7.4941 -83.9772
rradius 59.3259
rwrist -7.49066
rhand -18.4922 -12.4323
rfingers 7.12502
rthumb 7.79526 -42.2686
lclavicle -1.35639e-014 -9.14409e-015
lhumerus -12.7267 -21.2839 97.2851
lradius 70.6779
lwrist 7.75363
lhand -17.1965 8.95275
lfingers 7.12502
lthumb 9.04569 38.7388
rfemur -58.7227 -12.2949 19.2751
rtibia 64.7635
rfoot 360.686 -182.69
rtoes 11.2687
lfemur -6.34631 -5.5486 -26.6347
ltibia 23.342
lfoot 528.456 175.521
ltoes 4.29378
530
root -6.89639 18.0557 4.57149 879.128 -94.9816 -878.809
lowerback 4.05814 -3.20719 -4.00711
upperback -1.32997 -4.46019 1.20874
thorax -3.24499 -2.12674 3.77979
lowerneck -20.4322 -3.08331 -5.76409
upperneck 14.2214 -4.0044 7.60793
head 8.02867 -1.46481 2.97898
rclavicle -5.02615e-014 4.77083e-015
rhumerus -64.1735 7.47397 -83.4636
rradius 59.5777
rwrist -7.71559
rhand -18.3858 -12.3859
rfingers 7.12502
rthumb 7.89798 -42.2183
lclavicle -5.02615e-014 4.77083e-015
lhumerus -10.9707 -21.9661 96.2979
lradius 72.359
lwrist 7.5748
lhand -17.0938 8.69246
lfingers 7.12502
lthumb 9.14484 38.4742
rfemur -61.5429 -12.4768 19.5386
rtibia 63.2667
rfoot 360.429 -182.649
rtoes 11.3761
lfemur -5.41402 -5.50964 -26.6561
ltibia 22.8579
lfoot 528.626 175.25
ltoes 4.24493
531
root -7.01513 18.0776 4.55992 879.873 -95.3282 -879.787
lowerback 4.41533 -3.38867 -4.0907
upperback -1.20004 -4.71795 1.24018
thorax -3.27837 -2.25409 3.8925
lowerneck -20.4449 -2.99897 -5.71448
upperneck 14.1381 -3.89574 7.59826
head 7.99392 -1.41184 2.98103
rclavicle 3.06035e-014 1.66979e-014
rhumerus -65.5268 7.49963 -82.9928
rradius 59.8018
rwrist -7.92263
rhand -18.3568 -12.2883
rfingers 7.12502
rthumb 7.92595 -42.1197
lclavicle 3.06035e-014 1.66979e-014
lhumerus -9.18584 -22.538 95.2122
lradius 73.8806
lwrist 7.28176
lhand -17.0267 8.43921
lfingers 7.12502
lthumb 9.20957 38.2181
rfemur -64.2807 -12.5425 19.795
rtibia 62.0147
rfoot 360.199 -182.568
rtoes 11.3642
lfemur -4.52204 -5.44799 -26.6549
ltibia 22.4216
lfoot 528.769 175.029
ltoes 4.12858
532
root -7.1364 18.0982 4.54779 880.341 -95.6111 -880.456
lowerback 4.70733 -3.54441 -4.16763
upperback -1.07861 -4.93921 1.26957
thorax -3.28685 -2.36419 3.99436
lowerneck -20.449 -2.92204 -5.66189
upperneck 14.0699 -3.7961 7.57139
head 7.96303 -1.36472 2.97567
rclavicle -3.12836e-015 -1.31198e-014
rhumerus -66.8154 7.57905 -82.5694
rradius 59.9937
rwrist -8.11647
rhand -18.3391 -12.176
rfingers 7.12502
rthumb 7.94304 -42.0068
lclavicle -3.12836e-015 -1.31198e-014
lhumerus -7.37963 -22.988 94.055
lradius 75.2363
lwrist 6.94079
lhand -17.0128 8.19498
lfingers 7.12502
lthumb 9.22297 37.9733
rfemur -66.9369 -12.5052 20.0318
rtibia 61.0024
rfoot 359.996 -182.475
rtoes 11.2401
lfemur -3.67271 -5.38918 -26.6461
ltibia 22.0215
lfoot 528.892 174.865
ltoes 3.92914
533
root -7.26029 18.1176 4.5356 880.531 -95.8366 -880.816
lowerback 4.93846 -3.67688 -4.24374
upperback -0.969668 -5.12764 1.29638
thorax -3.27658 -2.45851 4.08804
lowerneck -20.4438 -2.85088 -5.60771
upperneck 14.0195 -3.70195 7.5223
head 7.93644 -1.32229 2.96197
rclavicle -3.77225e-014 9.54166e-015
rhumerus -68.0413 7.7169 -82.1976
rradius 60.1542
rwrist -8.30355
rhand -18.3177 -12.0641
rfingers 7.12502
rthumb 7.96376 -41.8941
lclavicle -3.77225e-014 9.54166e-015
lhumerus -5.56004 -23.3064 92.8568
lradius 76.4133
lwrist 6.60971
lhand -17.0226 7.97154
lfingers 7.12502
lthumb 9.21351 37.7502
rfemur -69.5006 -12.3794 20.2283
rtibia 60.2313
rfoot 359.825 -182.402
rtoes 11.0771
lfemur -2.85903 -5.35187 -26.6468
ltibia 21.6474
lfoot 528.989 174.76
ltoes 3.70402
534
root -7.38654 18.1361 4.52351 880.506 -96.0071 -880.935
lowerback 5.12079 -3.78774 -4.31916
upperback -0.877145 -5.28579 1.32317
thorax -3.25822 -2.53789 4.17699
lowerneck -20.4144 -2.78383 -5.55853
upperneck 13.9816 -3.61045 7.45601
head 7.90984 -1.28345 2.94306
rclavicle -3.00817e-014 5.56597e-015
rhumerus -69.2144 7.91374 -81.8786
rradius 60.2891
rwrist -8.48484
rhand -18.2919 -11.9212
rfingers 7.12502
rthumb 7.9886 -41.7502
lclavicle -3.00817e-014 5.56597e-015
lhumerus -3.75749 -23.4892 91.6524
lradius 77.4256
lwrist 6.35252
lhand -17.0333 7.78837
lfingers 7.12502
lthumb 9.20316 37.5675
rfemur -71.9571 -12.1748 20.3847
rtibia 59.6986
rfoot 359.691 -182.362
rtoes 10.8278
lfemur -2.07442 -5.33862 -26.6574
ltibia 21.2943
lfoot 529.058 174.708
ltoes 3.41568
535
root -7.51505 18.1537 4.51155 880.312 -96.1242 -880.867
lowerback 5.26737 -3.87907 -4.39206
upperback -0.801457 -5.41673 1.35038
thorax -3.23957 -2.6036 4.26159
lowerneck -20.3634 -2.71771 -5.50459
upperneck 13.9574 -3.51886 7.36645
head 7.88368 -1.24685 2.91565
rclavicle 8.70087e-014 -2.34566e-014
rhumerus -70.3379 8.16498 -81.6139
rradius 60.4056
rwrist -8.66818
rhand -18.2578 -11.7483
rfingers 7.12502
rthumb 8.02151 -41.5761
lclavicle 8.70087e-014 -2.34566e-014
lhumerus -1.9815 -23.5487 90.4614
lradius 78.2718
lwrist 6.20757
lhand -17.0327 7.64453
lfingers 7.12502
lthumb 9.20378 37.4237
rfemur -74.291 -11.9036 20.5052
rtibia 59.3949
rfoot 359.596 -182.36
rtoes 10.582
lfemur -1.29537 -5.353 -26.6752
ltibia 20.9327
lfoot 529.11 174.701
ltoes 3.12209
536
root -7.64561 18.1704 4.50009 880 -96.1984 -880.673
lowerback 5.39566 -3.95308 -4.45964
upperback -0.735504 -5.52366 1.38193
thorax -3.2228 -2.65727 4.3455
lowerneck -20.319 -2.65488 -5.48112
upperneck 13.9566 -3.42555 7.28524
head 7.86712 -1.20989 2.89649
rclavicle 1.96145e-014 -1.35174e-014
rhumerus -71.3988 8.47145 -81.3973
rradius 60.5023
rwrist -8.85452
rhand -18.2007 -11.6021
rfingers 7.12502
rthumb 8.0766 -41.4278
lclavicle 1.96145e-014 -1.35174e-014
lhumerus -0.255194 -23.4894 89.3147
lradius 78.977
lwrist 6.19559
lhand -17.0234 7.53605
lfingers 7.12502
lthumb 9.21272 37.3148
rfemur -76.4835 -11.5901 20.5912
rtibia 59.3084
rfoot 359.543 -182.401
rtoes 10.3077
lfemur -0.505126 -5.40162 -26.7032
ltibia 20.5576
lfoot 529.143 174.727
ltoes 2.85272
537
root -7.77785 18.1862 4.48893 879.635 -96.2212 -880.42
lowerback 5.5137 -4.01083 -4.51177
upperback -0.685714 -5.60776 1.41647
thorax -3.22021 -2.69914 4.42271
lowerneck -20.2612 -2.59098 -5.45713
upperneck 13.9718 -3.33004 7.19153
head 7.85327 -1.1732 2.87344
rclavicle -2.06301e-014 -6.36111e-015
rhumerus -72.4083 8.82399 -81.2321
rradius 60.5857
rwrist -9.03531
rhand -18.1264 -11.4678
rfingers 7.12502
rthumb 8.14837 -41.2906
lclavicle -2.06301e-014 -6.36111e-015
lhumerus 1.39078 -23.3154 88.2273
lradius 79.5554
lwrist 6.30324
lhand -16.9802 7.45976
lfingers 7.12502
lthumb 9.25444 37.2367
rfemur -78.5307 -11.2321 20.6642
rtibia 59.4261
rfoot 359.538 -182.479
rtoes 9.99525
lfemur 0.296746 -5.47143 -26.7256
ltibia 20.1625
lfoot 529.158 174.781
ltoes 2.58184
538
root -7.91169 18.2007 4.47799 879.255 -96.2005 -880.152
lowerback 5.62848 -4.05524 -4.54602
upperback -0.648812 -5.67295 1.45323
thorax -3.2324 -2.73118 4.49177
lowerneck -20.1999 -2.5253 -5.43451
upperneck 14.0028 -3.23237 7.09542
head 7.84407 -1.13574 2.85022
rclavicle 1.75241e-014 5.56597e-015
rhumerus -73.3596 9.21298 -81.114
rradius 60.6569
rwrist -9.20048
rhand -18.041 -11.3464
rfingers 7.12502
rthumb 8.23076 -41.166
lclavicle 1.75241e-014 5.56597e-015
lhumerus 2.93864 -23.0475 87.2108
lradius 80.0297
lwrist 6.50782
lhand -16.9179 7.41163
lfingers 7.12502
lthumb 9.31454 37.1859
rfemur -80.4228 -10.8456 20.7322
rtibia 59.7297
rfoot 359.569 -182.587
rtoes 9.64574
lfemur 1.11333 -5.56231 -26.7401
ltibia 19.7489
lfoot 529.163 174.851
ltoes 2.30585
539
root -8.04669 18.2139 4.46723 878.904 -96.1296 -879.904
lowerback 5.73984 -4.08623 -4.55533
upperback -0.625595 -5.71851 1.49347
thorax -3.26086 -2.75307 4.55001
lowerneck -20.1452 -2.45775 -5.40658
upperneck 14.0533 -3.13325 6.99311
head 7.84232 -1.09767 2.82437
rclavicle 9.59136e-015 -1.03368e-014
rhumerus -74.2483 9.63149 -81.0412
rradius 60.7192
rwrist -9.34716
rhand -17.9464 -11.2334
rfingers 7.12502
rthumb 8.32208 -41.0495
lclavicle 9.59136e-015 -1.03368e-014
lhumerus 4.381 -22.6984 86.2693
lradius 80.412
lwrist 6.76693
lhand -16.8593 7.39118
lfingers 7.12502
lthumb 9.3711 37.1629
rfemur -82.1576 -10.4292 20.8093
rtibia 60.2028
rfoot 359.635 -182.726
rtoes 9.26369
lfemur 1.931 -5.66115 -26.7364
ltibia 19.326
lfoot 529.158 174.935
ltoes 1.97194
540
root -8.18281 18.2256 4.45643 878.616 -96.0268 -879.707
lowerback 5.85272 -4.11092 -4.53825
upperback -0.622898 -5.75419 1.53226
thorax -3.3152 -2.76921 4.59297
lowerneck -20.0922 -2.38643 -5.37439
upperneck 14.123 -3.0327 6.89792
head 7.84735 -1.05791 2.80058
rclavicle -1.09394e-014 -7.95139e-015
rhumerus -75.077 10.0693 -81.0135
rradius 60.7662
rwrist -9.45114
rhand -17.8564 -11.1355
rfingers 7.12502
rthumb 8.40895 -40.9481
lclavicle -1.09394e-014 -7.95139e-015
lhumerus 5.68932 -22.2853 85.4023
lradius 80.7274
lwrist 7.03283
lhand -16.8095 7.37727
lfingers 7.12502
lthumb 9.41915 37.1468
rfemur -83.7349 -10.0068 20.8998
rtibia 60.8264
rfoot 359.732 -182.899
rtoes 8.85558
lfemur 2.73514 -5.7718 -26.7166
ltibia 18.9086
lfoot 529.145 175.02
ltoes 1.58302
541
root -8.31968 18.2356 4.44575 878.359 -95.8933 -879.518
lowerback 5.95336 -4.12862 -4.49814
upperback -0.634913 -5.77853 1.56807
thorax -3.38171 -2.7794 4.61923
lowerneck -20.0515 -2.3143 -5.3317
upperneck 14.2075 -2.93484 6.80543
head 7.85962 -1.01835 2.77573
rclavicle -8.12532e-015 7.55382e-015
rhumerus -75.8283 10.5124 -81.0217
rradius 60.7966
rwrist -9.49814
rhand -17.7932 -11.037
rfingers 7.12502
rthumb 8.46995 -40.8471
lclavicle -8.12532e-015 7.55382e-015
lhumerus 6.87205 -21.8239 84.6057
lradius 80.9917
lwrist 7.25904
lhand -16.7594 7.36435
lfingers 7.12502
lthumb 9.46751 37.1317
rfemur -85.1575 -9.5825 21.002
rtibia 61.5828
rfoot 359.844 -183.1
rtoes 8.44628
lfemur 3.50272 -5.89008 -26.6867
ltibia 18.5156
lfoot 529.127 175.106
ltoes 1.1255
542
root -8.45696 18.2436 4.43509 878.136 -95.7398 -879.334
lowerback 6.03287 -4.14245 -4.44147
upperback -0.663201 -5.79571 1.6014
thorax -3.45594 -2.78576 4.63237
lowerneck -20.0174 -2.24123 -5.28679
upperneck 14.2998 -2.83909 6.72628
head 7.87618 -0.978281 2.75481
rclavicle -9.50439e-016 5.56597e-015
rhumerus -76.4974 10.9516 -81.0548
rradius 60.8095
rwrist -9.4822
rhand -17.7439 -10.9232
rfingers 7.12502
rthumb 8.51748 -40.7315
lclavicle -9.50439e-016 5.56597e-015
lhumerus 7.9265 -21.3272 83.8781
lradius 81.2215
lwrist 7.41766
lhand -16.7025 7.33759
lfingers 7.12502
lthumb 9.5224 37.1024
rfemur -86.4301 -9.1682 21.1185
rtibia 62.4528
rfoot 359.959 -183.317
rtoes 8.03361
lfemur 4.21138 -6.01239 -26.6485
ltibia 18.1659
lfoot 529.109 175.185
ltoes 0.568772
